PathFileType	4	(X/Y/Z)	Kaydara	
DataRate	CameraRate	NumFrames	NumMarkers	Units	OrigDataRate	OrigDataStartFrame	OrigNumFrames	
120.00	120.00	4	72	mm	120.00	164	261	
Frame#	Time	Hips			RightUpLeg			RightLeg			RightFoot			RightFoot_End			LeftUpLeg			LeftLeg			LeftFoot			LeftFoot_End			Spine			Spine1			Spine2			Spine3			Neck			Head			Head_End			RightShoulder			RightArm			RightForeArm			RightHand			RightHandThumb1			RightHandThumb2			RightHandThumb3			RightHandThumb3_End			RightInHandIndex			RightHandIndex1			RightHandIndex2			RightHandIndex3			RightHandIndex3_End			RightInHandMiddle			RightHandMiddle1			RightHandMiddle2			RightHandMiddle3			RightHandMiddle3_End			RightInHandRing			RightHandRing1			RightHandRing2			RightHandRing3			RightHandRing3_End			RightInHandPinky			RightHandPinky1			RightHandPinky2			RightHandPinky3			RightHandPinky3_End			LeftShoulder			LeftArm			LeftForeArm			LeftHand			LeftHandThumb1			LeftHandThumb2			LeftHandThumb3			LeftHandThumb3_End			LeftInHandIndex			LeftHandIndex1			LeftHandIndex2			LeftHandIndex3			LeftHandIndex3_End			LeftInHandMiddle			LeftHandMiddle1			LeftHandMiddle2			LeftHandMiddle3			LeftHandMiddle3_End			LeftInHandRing			LeftHandRing1			LeftHandRing2			LeftHandRing3			LeftHandRing3_End			LeftInHandPinky			LeftHandPinky1			LeftHandPinky2			LeftHandPinky3			LeftHandPinky3_End			
		X1	Y1	Z1	X2	Y2	Z2	X3	Y3	Z3	X4	Y4	Z4	X5	Y5	Z5	X6	Y6	Z6	X7	Y7	Z7	X8	Y8	Z8	X9	Y9	Z9	X10	Y10	Z10	X11	Y11	Z11	X12	Y12	Z12	X13	Y13	Z13	X14	Y14	Z14	X15	Y15	Z15	X16	Y16	Z16	X17	Y17	Z17	X18	Y18	Z18	X19	Y19	Z19	X20	Y20	Z20	X21	Y21	Z21	X22	Y22	Z22	X23	Y23	Z23	X24	Y24	Z24	X25	Y25	Z25	X26	Y26	Z26	X27	Y27	Z27	X28	Y28	Z28	X29	Y29	Z29	X30	Y30	Z30	X31	Y31	Z31	X32	Y32	Z32	X33	Y33	Z33	X34	Y34	Z34	X35	Y35	Z35	X36	Y36	Z36	X37	Y37	Z37	X38	Y38	Z38	X39	Y39	Z39	X40	Y40	Z40	X41	Y41	Z41	X42	Y42	Z42	X43	Y43	Z43	X44	Y44	Z44	X45	Y45	Z45	X46	Y46	Z46	X47	Y47	Z47	X48	Y48	Z48	X49	Y49	Z49	X50	Y50	Z50	X51	Y51	Z51	X52	Y52	Z52	X53	Y53	Z53	X54	Y54	Z54	X55	Y55	Z55	X56	Y56	Z56	X57	Y57	Z57	X58	Y58	Z58	X59	Y59	Z59	X60	Y60	Z60	X61	Y61	Z61	X62	Y62	Z62	X63	Y63	Z63	X64	Y64	Z64	X65	Y65	Z65	X66	Y66	Z66	X67	Y67	Z67	X68	Y68	Z68	X69	Y69	Z69	X70	Y70	Z70	X71	Y71	Z71	X72	Y72	Z72	

164	1.358	2081.203	893.81699	129.612	2135.801559897391	881.2594582183727	86.82468035431509	2033.56233781114	478.31525448151405	49.70177522585738	2076.2111921627393	115.94755284979446	-17.88180880595218	1983.9000620863674	32.02535358425271	121.76563906377208	2037.6226905419371	879.9136556281261	186.63530162478824	1929.5530237410987	491.84657118598363	299.3819956864635	1813.9778826808417	89.64247471405571	428.3857234826312	1670.4495259763903	34.974896559625016	316.79802204019205	2032.4704084380228	1015.7791308636819	73.683913350234	1979.5851820524483	1080.7194900148259	24.63662946294981	1920.4079187879897	1143.0268444732724	-28.605967243762347	1858.4567093496428	1194.1064399889883	-83.09055238908199	1790.729812424588	1249.5590115131786	-138.74600282850122	1720.8752519964892	1294.561775935034	-181.84142311080737	1581.6827536116064	1371.3437891974004	-191.7807126459336	1827.103642727	1236.3329438833596	-132.57464578666622	1878.904072628932	1254.9489346413504	-177.5276055014334	1982.5370452566651	1098.5691531970278	-203.42949418619662	2091.5408411852823	1035.0183651910063	-261.9653544178355	2101.658125855047	1056.0357705505921	-273.88564464738977	2104.518268112763	1061.9323221851423	-293.5440355797967	2107.2512962211113	1062.3441041858728	-306.8416773056387	2110.1638056696384	1059.526772779821	-317.59160626603006	2106.4385182221117	1045.3270583159672	-272.8560169190566	2126.7797783834135	1044.748963781967	-291.1476589101468	2134.5518552888725	1041.104125176117	-307.7036845216816	2133.6976789949563	1040.1127155521676	-318.9974411073267	2129.1552329548404	1040.1518764727225	-329.0204166653614	2107.4431299193557	1035.144399849257	-271.33382074286027	2127.8285904200407	1029.0736625547718	-288.35049752565493	2136.368083939877	1023.7506629991279	-306.1610090086572	2135.365650273822	1021.9087847938526	-319.66395519938783	2130.4090506283223	1021.6376892305092	-330.57132540902523	2107.707520984739	1027.9737593299176	-269.7538351359892	2126.4221323750635	1016.3338660682614	-283.5220838167807	2133.8921418619143	1010.3282961720463	-298.7583506155043	2132.93951686979	1007.826214075467	-311.6303677094375	2128.285835368768	1007.2275576736911	-321.8137018923004	2106.8422718412507	1019.6577548303135	-267.70053155670604	2123.727683428252	1003.8837909715434	-278.9419609180981	2129.6692889804567	996.9942893212416	-290.63437844026754	2128.9550387577424	994.1628819085513	-299.7774461343356	2124.8214711611813	993.0533726782253	-308.65674224039026	1799.2157022484457	1224.8575347955345	-108.05124995288458	1759.3613186498656	1175.0913460713919	-71.09339727188397	1905.9878284734234	1084.134302815031	-125.97969590054139	2043.0145239841597	1034.3666728434828	-184.27699076851297	2052.965622858023	1056.5691745823115	-191.44624357537646	2072.0157948419564	1062.7820763310337	-184.5840713872464	2086.6998748995898	1063.5004658819273	-179.21597042697758	2100.1540135049686	1061.0125764978834	-174.23670164565158	2058.7182949188154	1046.420301373394	-191.34931599548725	2089.0234599974688	1048.2153114248522	-194.09142051146554	2111.4044162428963	1045.4649569184944	-188.74726263980003	2122.5213028935996	1044.3596906108826	-181.71119874859912	2129.8358502534993	1043.8527060936726	-173.3825046282862	2061.5803392451826	1036.3538075753336	-189.30639808456326	2092.6868012736904	1032.6607828796894	-190.87802058812596	2117.3898335431068	1028.320521586047	-184.75896688857486	2130.936760060883	1026.344483355284	-176.1322331800209	2139.0057357164465	1025.4773735814517	-166.95205637415376	2062.8312181995184	1029.2134072663937	-187.8634342504162	2091.8010603107505	1019.7561843003193	-188.22510611482696	2113.570434570308	1014.6101583102137	-182.594596385934	2126.7639663713917	1011.9802673053713	-174.1156310213061	2134.4107528760014	1010.82194844454	-165.40916838600486	2063.3777610460606	1020.7947846666582	-185.56683251399716	2090.302778082385	1006.9895237435636	-184.71960331389752	2107.98001923739	1000.7834020065458	-179.74525720718384	2117.722023083915	997.8563772595548	-173.33542293944265	2124.564076377932	996.2497397626578	-165.49327874883397
165	1.367	2081.203	893.81699	129.612	2134.9663059925456	880.8037624248759	86.63590314770497	2033.0667920182573	477.8083449727692	49.70169751558587	2079.4934814026337	116.15444893899026	-19.46977702373819	1987.692209680067	31.85376874576316	120.14948180491773	2038.4400420168115	880.3594396210306	186.8215643190221	1930.3467515790173	492.23225440819147	299.31343388673497	1814.9622272085853	89.66575698736283	427.1521172310815	1671.4666716908314	34.76100733154938	315.67621231003676	2032.646728052683	1015.8237910803467	73.62700334813995	1979.879016972551	1080.8854058350744	24.608037167282674	1920.7936942608435	1143.3328855338957	-28.575566616525467	1858.8511115313454	1194.53369455409	-82.95000027925782	1791.1748254043284	1250.124335628373	-138.52476264316894	1721.7548628312525	1295.4784177991628	-181.99311795488148	1582.5632888538044	1372.25174765769	-191.8717869156767	1827.308788643848	1236.1827178792173	-132.70472341498677	1878.0351066625897	1253.6313007855758	-177.203631300614	1979.4040893565073	1097.0456052212883	-200.3213825950605	2087.4359248592327	1035.407341142308	-256.42721510055185	2097.4454781025192	1056.4197538998721	-268.06095789362195	2100.349092729912	1062.3498775739295	-287.343145993621	2103.104469283161	1062.792574668161	-300.3733870906534	2106.0288251777247	1060.0074657184916	-310.8957571378191	2102.1672485257122	1045.7362636813357	-266.987619066096	2122.312862890231	1045.222824243791	-284.7457259559847	2130.057319269088	1041.6301273071097	-300.919737066035	2129.2671702850866	1040.6639031118857	-312.0159234012006	2124.8325009911086	1040.7190259699416	-321.90229726214073	2103.16225948672	1035.572192175641	-265.4687430940615	2123.351679001609	1029.5745744264925	-281.9668198089697	2131.860524600748	1024.3107246024165	-299.3626316670964	2130.935107676995	1022.5003063675476	-312.6282548341844	2126.09632048152	1022.2472044634588	-323.38666549636974	2103.423669578014	1028.4130251638935	-263.90468523723126	2121.956510814	1016.8485853848912	-277.22189845097745	2129.399621344895	1010.8967572307959	-292.0997300399882	2128.521187069653	1008.4261842128461	-304.744430362856	2123.9782348960193	1007.8449939479041	-314.78846616789934	2102.5700538994247	1020.1084494322373	-261.885449120877	2119.2918468663324	1004.4107226486536	-272.7339152138719	2125.212427287954	997.5673406268489	-284.1459930395713	2124.5525399704034	994.7604045122406	-293.126488550996	2120.51720002741	993.6672285394941	-301.88424606948627	1799.843999017702	1226.0521344163838	-107.49954473683104	1760.8010510041013	1177.5856851989877	-70.42880086962384	1905.8676017126165	1085.8394596328396	-123.47807286783686	2039.7795963394024	1033.2850778370318	-181.14749011183076	2049.525733209552	1055.3635996342698	-188.2797396440683	2068.263035556398	1061.4572922016641	-181.51214774951788	2082.7168389354556	1062.0976567007283	-176.19159467343937	2095.968400383137	1059.5489822283905	-171.2362781131949	2055.2180424410403	1045.220243048979	-188.09298189678788	2085.059341217875	1046.8568762259738	-190.6631480740244	2107.102181342633	1044.001457948847	-185.3101604085763	2118.0465441912115	1042.8419398061862	-178.3577040666503	2125.2437106818206	1042.2975147538193	-170.1583155807523	2058.0618017264524	1035.1730670884242	-186.01147613462797	2088.7059335047697	1031.3360003965167	-187.3944931708242	2113.039083670036	1026.8841713090408	-181.26141164675315	2126.3774225119832	1024.8441518462314	-172.73343758554324	2134.317748663249	1023.9367846829905	-163.69371926348592	2059.3115777299386	1028.0503007868433	-184.54436310257842	2087.866069843324	1018.4791489494959	-184.71229956701185	2109.3128350886855	1013.2392403566749	-179.0653789467434	2122.30504907158	1010.5494153345721	-170.679453700544	2129.830819867188	1009.3540916733002	-162.10400925933916	2059.8704306057857	1019.6569900989601	-182.23498445332154	2086.4218717119325	1005.7626226854089	-181.19783502414285	2103.8422520501204	999.4870681862825	-176.20467967068996	2113.4381237697194	996.5191102419654	-169.85996867641487	2120.1733815722105	994.8812898881115	-162.13230265839653
166	1.375	2081.203	893.81699	129.612	2134.0696746823355	880.2672745833711	86.31908798215935	2032.5209547843026	477.21477385042965	49.60145957250387	2080.663419409737	116.23754988182023	-21.035522878682787	1989.4055170208992	31.541908981898715	118.57098344284377	2039.3264027898413	880.8917704995665	187.13991215637517	1931.1849385307357	492.72440484678253	299.417745334018	1815.9323574838547	89.8009808267288	426.08083274360695	1672.514233386832	34.56923167545076	314.69705877815085	2032.8068887716354	1015.8526846491885	73.5522074485114	1980.1037383135497	1080.9941132791862	24.56731893740541	1921.0742512119618	1143.543817715453	-28.558162903401673	1859.1556350210185	1194.8655515635767	-82.83890607721048	1791.5193825525864	1250.5796347503647	-138.3330613339489	1722.287489754917	1296.141991610607	-181.88184063104464	1583.089780596701	1372.9039754360822	-191.64855896821138	1827.3970484717838	1236.2341820932736	-132.57547923863163	1877.0539823972604	1252.4816267485858	-176.70982641286957	1975.8112646220636	1095.4313920398288	-197.01414573293107	2081.1422313622184	1032.8363620461614	-251.83759542814295	2091.0741549246713	1053.749806282786	-263.3169974971539	2093.949125923015	1059.6117726053515	-282.2650591213632	2096.6623146238985	1060.0092695074982	-295.04917610861855	2099.532466031968	1057.1884179896392	-305.35486297493895	2095.694636294966	1043.0612169596434	-262.1921088186061	2115.54679952177	1042.4151330700713	-279.53900947821455	2123.164126392392	1038.7523029118693	-295.3692523437572	2122.378135104773	1037.7630951192482	-306.26296212150294	2118.0030329656693	1037.8130958781292	-315.98931647992623	2096.6430249023892	1032.9089865840774	-260.64826068286555	2116.52098599721	1026.7883900761133	-276.73176264075886	2124.885998054474	1021.4500329229955	-293.75042547768425	2123.963150982519	1019.6128495980771	-306.77078553803864	2119.188351305202	1019.3546188174674	-317.3536327183774	2096.877996543191	1025.7613354841476	-259.07746602302745	2115.1058701408483	1014.095982588296	-272.01850612765537	2122.418906007193	1008.0814738899068	-286.5661785495013	2121.5404482788595	1005.5862935885747	-298.97354478261013	2117.0564699064607	1005.0008427106781	-308.8521496577874	2096.010187033454	1017.4757338014957	-257.05910938281085	2112.4401081916185	1001.6963196782243	-267.5643486332793	2118.2505086186993	994.8067179576636	-278.7114624939711	2117.5876926329665	991.9837412902244	-287.5185499299148	2113.602917118456	990.8879072035378	-296.1295995891333	1800.4115317767653	1226.839731304052	-107.28035388528569	1762.1490177495793	1179.6010520926168	-70.14563308824637	1905.7847795996793	1087.2542185985187	-121.321912845521	2036.430841135687	1031.737159302817	-178.2823421094846	2045.9936072015068	1053.6557574658418	-185.44942384899673	2064.448612412742	1059.6081540768919	-178.8425499249766	2078.688486412716	1060.1531933330746	-173.61230047524407	2091.7468893263876	1057.5276746877782	-168.7137738681957	2051.607555373918	1043.5050046082597	-185.16833613280582	2080.9821266122635	1044.9134616192619	-187.65417104998392	2102.6971290280762	1041.9191751440883	-182.34949841545523	2113.4863371354345	1040.699461696227	-175.50996319645503	2120.5879075719226	1040.122842298474	-167.4599548043925	2054.420293971869	1033.4750688136007	-183.03605802163423	2084.5924108738336	1029.4247644689183	-184.30931994709428	2108.5652426511433	1024.8244445168948	-178.2226708150968	2121.715150716666	1022.7132609758	-169.82791980129738	2129.5502720232585	1021.7713727632851	-160.9501807869412	2055.6598879947237	1026.3700738286318	-181.5339805738218	2083.782004188353	1016.6225816260043	-181.56956242234367	2104.912816937315	1011.2566949780405	-175.9568676847458	2117.722273951263	1008.5000556848241	-167.6961300371624	2125.1486486771896	1007.2731424955764	-159.2714154362202	2056.221903204477	1018.005655552432	-179.1965550231967	2082.3779853466795	1003.9665241531369	-178.01651119215856	2099.5442983845846	997.5962327710654	-173.0416105362036	2109.0063395056663	994.5825126642482	-166.78377612228454	2115.653256864334	992.9184199791539	-159.18709041518298
167	1.383	2081.203	893.81699	129.612	2133.143827452429	879.732927058646	85.99867066762798	2032.0702120944616	476.5825526100416	49.52087955133802	2080.319076569812	116.23239976477122	-22.44641624002553	1989.5932166618925	31.169875167215036	117.15215706409815	2040.2476090520101	881.4229457188636	187.458848372286	1932.0531954224405	493.2422184551211	299.60389042511326	1816.91374359952	89.96354491091954	425.0927105970164	1673.556938134799	34.290283391151235	313.86736470645775	2032.9440475407932	1015.8764250558111	73.48823280185917	1980.2475184048499	1081.0518877680397	24.54320883469948	1921.226065027214	1143.6530314013985	-28.526119953308307	1859.3220246977248	1195.0618901778175	-82.73047657523978	1791.6979485082034	1250.8558258595062	-138.14971402604442	1722.413077234873	1296.4778526727828	-181.50723935129594	1583.2124347365561	1373.2400648091082	-191.13804899368265	1827.3190436885739	1236.3702355342978	-132.2396576117248	1875.9729781047258	1251.509837148122	-176.04625939338484	1974.7263002524112	1095.8753851317367	-194.45401289366524	2075.3337432317	1029.346997715491	-248.91464931688145	2085.2158124749963	1049.9972882856407	-260.4303779219421	2087.9452711151307	1055.6279449690664	-279.0923261845756	2090.5146516446894	1055.8616512636165	-291.64908619830095	2093.228585233484	1052.9019420727868	-301.7411975213072	2089.6731095693412	1039.2658014250453	-259.2317140835794	2109.069701684403	1038.1811237341894	-276.3148234412823	2116.4039651530047	1034.2613901438924	-291.8352973118254	2115.5305959527723	1033.1752215754877	-302.5105184089819	2111.142927945055	1033.1873066702735	-312.0385537191914	2090.523458537823	1029.1237713912994	-257.6146195570157	2109.9040226782718	1022.5808840920124	-273.4012458175929	2117.9487490582515	1016.9650213417779	-290.07292547965073	2116.91500018197	1015.0122230284829	-302.82537852761936	2112.123786401689	1014.7131607791019	-313.18913309751576	2090.7000737752724	1021.9939230736054	-255.99985239192787	2108.429441591971	1009.9638262855744	-268.6397179811978	2115.4524376223494	1003.7110072270413	-282.87624925441924	2114.4612288927606	1001.1061977413476	-295.02057403151605	2109.959077680783	1000.48325303424	-304.6909913294407	2089.7838201100526	1013.7462389700175	-253.9302264507658	2105.7241143825822	997.6535197674822	-264.1310417359521	2111.287467355902	990.5802417499184	-275.0167249516698	2110.535257351126	987.6807613168636	-283.62600557736295	2106.530269485754	986.5537074308309	-292.04921676593614	1800.8447202968582	1227.2165900633302	-107.29175009260022	1763.3440512779503	1181.1655262809277	-70.11854170322611	1905.5623390030944	1088.329845633107	-119.3605657758796	2034.1577326489935	1032.7067808112279	-174.15859494941114	2043.5212870521489	1054.474750837104	-181.3327448622035	2061.679019343609	1060.2950742888947	-174.86179269987403	2075.6972503555744	1060.7529357337353	-169.70488970721775	2088.558370946786	1058.0588516663875	-164.84929574282563	2049.0656963799183	1044.3244751102454	-180.9552164911582	2077.9702597402156	1045.533952747987	-183.31524727401802	2099.3519920819695	1042.4168401300517	-178.0337613564655	2109.978988415249	1041.1408761846444	-171.29653866684697	2116.9766450742263	1040.531261783687	-163.39050262869986	2051.854722308742	1034.315270508194	-178.7746456666088	2081.5555895831358	1030.08210513967	-179.89904645493343	2105.1631455612496	1025.3511523622954	-173.8318708819574	2118.1165783476804	1023.1737354498846	-165.55776406543305	2125.8376171072023	1022.1965422044944	-156.83619197377132	2053.089436299503	1027.2298336175204	-177.24036605820996	2080.78461013797	1017.3349494346043	-177.11081801727008	2101.596142838582	1011.8589744236929	-171.5093938828556	2114.2156058477253	1009.0404490424304	-163.36199636506117	2121.534484062089	1007.7812905451053	-155.08268310776396	2053.6604307867033	1018.8950444375852	-174.87962626798915	2079.4298854399813	1004.7383600192793	-173.52939053600068	2096.340985674105	998.2864324515393	-168.55534234671538	2105.6646622067783	995.2307258201874	-162.37622332202065	2112.216486694836	993.5398822212377	-154.90606856862686
